<svg id="Layer_1" data-name="Layer 1" xmlns="http://www.w3.org/2000/svg" viewBox="0 0 530 499"><defs><style>.cls-1{fill:#fb5607;}.cls-2,.cls-6{fill:#fff;}.cls-3{fill:#3a0ca3;}.cls-4{fill:#f72585;}.cls-5{font-size:36px;fill:#00ff24;font-family:MyriadPro-Regular, Myriad Pro;}.cls-10,.cls-13,.cls-6,.cls-8{font-size:26px;font-weight:700;}.cls-6,.cls-8{stroke:#fff;stroke-miterlimit:10;}.cls-10,.cls-6,.cls-8{font-family:Roboto-Bold, Roboto;}.cls-7{fill:#3a86ff;}.cls-8{fill:#fcfcfc;}.cls-9{letter-spacing:-0.02em;}.cls-11{letter-spacing:-0.02em;}.cls-12{fill:none;stroke:#000;stroke-linejoin:bevel;stroke-width:2px;}.cls-13{font-family:Roboto-BoldItalic, Roboto;font-style:italic;}</style></defs><circle class="cls-1" cx="170" cy="262" r="107"/><path class="cls-2" d="M170,158A104,104,0,1,1,66,262,104.11,104.11,0,0,1,170,158m0-6A110,110,0,1,0,280,262,110,110,0,0,0,170,152Z"/><circle class="cls-3" cx="279" cy="374" r="107"/><path class="cls-2" d="M279,270A104,104,0,1,1,175,374,104.11,104.11,0,0,1,279,270m0-6A110,110,0,1,0,389,374,110,110,0,0,0,279,264Z"/><circle class="cls-4" cx="391" cy="262" r="107"/><path class="cls-2" d="M391,158A104,104,0,1,1,287,262,104.11,104.11,0,0,1,391,158m0-6A110,110,0,1,0,501,262,110,110,0,0,0,391,152Z"/><text class="cls-5" transform="translate(212.79 121.07)">Business</text><text class="cls-5" transform="translate(212.79 121.07)">Business</text><text class="cls-5" transform="translate(212.79 121.07)">Business</text><text class="cls-5" transform="translate(212.79 121.07)">Business</text><text class="cls-5" transform="translate(212.79 121.07)">Business</text><text class="cls-6" transform="translate(403 268.52)">UI/UX</text><circle class="cls-7" cx="283" cy="154" r="107"/><path class="cls-2" d="M283,50A104,104,0,1,1,179,154,104.11,104.11,0,0,1,283,50m0-6A110,110,0,1,0,393,154,110,110,0,0,0,283,44Z"/><text class="cls-8" transform="translate(221.9 134.01)">Business</text><text class="cls-6" transform="translate(72.56 268.51)"><tspan class="cls-9">A</tspan><tspan x="16.88" y="0">pplication</tspan></text><text class="cls-6" transform="translate(250.3 422.6)">Data</text><circle class="cls-2" cx="283.5" cy="262.5" r="70.5"/><path class="cls-2" d="M283.5,195A67.5,67.5,0,1,1,216,262.5,67.58,67.58,0,0,1,283.5,195m0-6A73.5,73.5,0,1,0,357,262.5,73.5,73.5,0,0,0,283.5,189Z"/><text class="cls-10" transform="translate(235.83 268.57)">P<tspan class="cls-11" x="16.77" y="0">r</tspan><tspan x="25.8" y="0">oduct</tspan></text><rect class="cls-12" width="530" height="499"/><text class="cls-13" transform="translate(13.64 36.18)">P<tspan class="cls-11" x="16.39" y="0">r</tspan><tspan x="25.26" y="0">oduct Domain</tspan></text></svg>